<svg width="15" height="22" viewBox="0 0 15 22" fill="none" xmlns="http://www.w3.org/2000/svg">
<path d="M13.7842 20.9918C6.61833 21.3458 0.532831 15.823 0.179359 8.66783C0.163828 8.35344 0.368327 8.07334 0.66686 7.98874L3.53955 7.1747C3.69102 7.13176 3.85275 7.14343 3.99649 7.20765C4.14023 7.27187 4.25683 7.38457 4.32591 7.52603L5.82162 10.589C5.88551 10.7199 5.90513 10.8679 5.87753 11.0109C5.84992 11.1539 5.77658 11.284 5.66857 11.3817L4.04342 12.8511C5.17805 14.9884 7.04848 16.6596 9.24048 17.5588L10.5425 15.7967C10.6291 15.6796 10.7513 15.5938 10.8909 15.5522C11.0304 15.5107 11.1797 15.5156 11.3162 15.5663L14.5118 16.7528C14.6593 16.8076 14.783 16.9126 14.861 17.0493C14.9391 17.186 14.9667 17.3458 14.9389 17.5007L14.4119 20.4397C14.3851 20.5891 14.3085 20.7251 14.1945 20.8253C14.0805 20.9256 13.9358 20.9843 13.7842 20.9918ZM5.79953 5.86382C6.6902 6.047 7.41283 6.7016 7.68291 7.56988C7.77309 7.85975 7.56957 8.15808 7.26675 8.17946L6.94429 8.20228C6.73322 8.21721 6.54003 8.0887 6.46782 7.88983C6.39813 7.69827 6.28274 7.52661 6.13166 7.38976C5.98059 7.2529 5.79839 7.155 5.60089 7.10453C5.39585 7.0523 5.24895 6.87269 5.24301 6.66117L5.23393 6.33803C5.22536 6.03458 5.50218 5.80265 5.79953 5.86382ZM5.56672 0.815166C9.21685 0.951884 12.2345 3.68795 12.7299 7.30393C12.7668 7.57316 12.5676 7.81737 12.2966 7.83654L11.9837 7.85866C11.7376 7.87605 11.5194 7.7004 11.4851 7.45605C11.0645 4.45621 8.56222 2.1917 5.53802 2.06889C5.29148 2.05886 5.09516 1.8591 5.08823 1.61243L5.07941 1.29884C5.07177 1.02723 5.29517 0.804991 5.56672 0.815166ZM5.66217 3.32465C7.94863 3.49577 9.82693 5.19417 10.2232 7.45627C10.2714 7.7313 10.0712 7.98779 9.7927 8.00741L9.47861 8.02954C9.24108 8.04628 9.02633 7.88327 8.9837 7.64895C8.67895 5.97428 7.28904 4.71534 5.5926 4.57713C5.35522 4.5578 5.17187 4.36019 5.16509 4.12214L5.15615 3.8074C5.14823 3.52831 5.38374 3.30381 5.66217 3.32465Z" fill="#0092D3"/>
</svg>
