<svg width="16" height="19" viewBox="0 0 16 19" fill="none" xmlns="http://www.w3.org/2000/svg">
<path d="M11.2 11.3571C10.175 11.3571 9.68214 11.9196 8 11.9196C6.31786 11.9196 5.82857 11.3571 4.8 11.3571C2.15 11.3571 0 13.4735 0 16.0821V16.9821C0 17.9137 0.767857 18.6696 1.71429 18.6696H14.2857C15.2321 18.6696 16 17.9137 16 16.9821V16.0821C16 13.4735 13.85 11.3571 11.2 11.3571ZM14.2857 16.9821H1.71429V16.0821C1.71429 14.4086 3.1 13.0446 4.8 13.0446C5.32143 13.0446 6.16786 13.6071 8 13.6071C9.84643 13.6071 10.675 13.0446 11.2 13.0446C12.9 13.0446 14.2857 14.4086 14.2857 16.0821V16.9821ZM8 10.7946C10.8393 10.7946 13.1429 8.52698 13.1429 5.73206C13.1429 2.93713 10.8393 0.669556 8 0.669556C5.16071 0.669556 2.85714 2.93713 2.85714 5.73206C2.85714 8.52698 5.16071 10.7946 8 10.7946ZM8 2.35706C9.88929 2.35706 11.4286 3.87229 11.4286 5.73206C11.4286 7.59182 9.88929 9.10706 8 9.10706C6.11071 9.10706 4.57143 7.59182 4.57143 5.73206C4.57143 3.87229 6.11071 2.35706 8 2.35706Z" fill="#0092D3"/>
</svg>
