<svg width="10" height="12" viewBox="0 0 10 12" fill="none" xmlns="http://www.w3.org/2000/svg">
<path d="M0.252813 7.18671V6.12271H5.73281C5.82348 6.12271 5.93281 6.11738 6.06081 6.10671C6.18881 6.09604 6.31948 6.07738 6.45281 6.05071C7.02881 5.92271 7.45815 5.64004 7.74081 5.20271C8.02881 4.76004 8.17281 4.25871 8.17281 3.69871C8.17281 3.33604 8.11148 2.98671 7.98881 2.65071C7.86615 2.31471 7.67681 2.02671 7.42081 1.78671C7.16481 1.54671 6.84215 1.38404 6.45281 1.29871C6.32481 1.26671 6.19415 1.24804 6.06081 1.24271C5.92748 1.23738 5.81815 1.23471 5.73281 1.23471H2.38881V0.106709H5.76481C5.85548 0.106709 5.97015 0.112042 6.10881 0.122708C6.25281 0.128042 6.41015 0.144042 6.58081 0.170709C7.17815 0.266709 7.68481 0.477375 8.10081 0.802709C8.52215 1.12271 8.83948 1.53071 9.05281 2.02671C9.27148 2.52271 9.38081 3.07204 9.38081 3.67471C9.38081 4.57071 9.14081 5.33071 8.66081 5.95471C8.18615 6.57871 7.49281 6.96804 6.58081 7.12271C6.41015 7.14404 6.25281 7.16004 6.10881 7.17071C5.97015 7.18138 5.85548 7.18671 5.76481 7.18671H0.252813ZM0.252813 9.67471V8.66671H6.43681V9.67471H0.252813ZM1.47681 11.6267V0.106709H2.65281V11.6267H1.47681Z" fill="#0D324D"/>
</svg>
