<svg width="10" height="12" viewBox="0 0 10 12" fill="none" xmlns="http://www.w3.org/2000/svg">
<path d="M0.143438 7.43471V5.78671H5.56744C5.65277 5.78671 5.75677 5.78404 5.87944 5.77871C6.00744 5.76804 6.14877 5.74138 6.30344 5.69871C6.7461 5.57604 7.0661 5.35471 7.26344 5.03471C7.46077 4.70938 7.55944 4.33071 7.55944 3.89871C7.55944 3.63738 7.51944 3.37604 7.43944 3.11471C7.36477 2.84804 7.2341 2.61338 7.04744 2.41071C6.8661 2.20804 6.6181 2.06671 6.30344 1.98671C6.16477 1.94938 6.02344 1.92804 5.87944 1.92271C5.74077 1.91737 5.63677 1.91471 5.56744 1.91471H2.55144V0.106709H5.64744C5.7061 0.106709 5.82077 0.109375 5.99144 0.114709C6.16744 0.120042 6.3621 0.138708 6.57544 0.170709C7.23677 0.272042 7.78344 0.493375 8.21544 0.834708C8.65277 1.17604 8.97544 1.60804 9.18344 2.13071C9.39677 2.64804 9.50344 3.21871 9.50344 3.84271C9.50344 4.79738 9.26077 5.58671 8.77544 6.21071C8.2901 6.83471 7.55677 7.22138 6.57544 7.37071C6.3621 7.39738 6.16744 7.41604 5.99144 7.42671C5.82077 7.43204 5.7061 7.43471 5.64744 7.43471H0.143438ZM0.143438 10.0587V8.54671H6.96744V10.0587H0.143438ZM1.28744 11.6267V0.106709H3.21544V11.6267H1.28744Z" fill="white"/>
</svg>
