<svg width="23" height="25" fill="none" xmlns="http://www.w3.org/2000/svg"><path d="M4.167 12.188c-1.276-.12-2.935.574-3.644.95-.269-.836-.486-1.283.187-2.365.773.63 2.627.66 3.508.631l-.051.784Z" fill="#fff"/><ellipse cx=".525" cy="11.934" rx="1.217" ry=".447" transform="rotate(-86.242 .525 11.934)" fill="#fff"/><ellipse cx=".433" cy="11.927" rx=".816" ry=".293" transform="rotate(-86.242 .433 11.927)" fill="#1A72B2"/><ellipse cx="11.533" cy="12.758" rx="9.516" ry="9.497" fill="#fff"/><path d="M6.481 7.163c-.74-1.182-2.435-2.154-3.228-2.518.544-.785.785-1.268 2.165-1.402-.034 1.085 1.166 2.704 1.774 3.446l-.71.474Z" fill="#fff"/><ellipse cx="4.294" cy="3.851" rx="1.323" ry=".486" transform="rotate(-33.69 4.294 3.851)" fill="#fff"/><ellipse cx="4.238" cy="3.767" rx=".888" ry=".318" transform="rotate(-33.69 4.238 3.767)" fill="#1A72B2"/><path d="M9.014 4.75c-.36-1.082-.091-2.657.092-3.346-.778-.065-1.208-.164-2.01.636.701.543 1.099 2.142 1.25 2.911l.668-.202Z" fill="#fff"/><ellipse rx="1.082" ry=".397" transform="scale(-1 1) rotate(16.798 -9.61 -26.483)" fill="#fff"/><ellipse rx=".726" ry=".26" transform="scale(-1 1) rotate(16.798 -9.332 -26.441)" fill="#1A72B2"/><path d="M11.16 4.197c.387-1.2.073-2.938-.136-3.699.86-.08 1.334-.194 2.23.682-.77.608-1.194 2.38-1.354 3.233l-.74-.216Z" fill="#fff"/><ellipse cx="12.178" cy=".756" rx="1.196" ry=".439" transform="rotate(16.265 12.178 .756)" fill="#fff"/><ellipse cx="12.204" cy=".669" rx=".802" ry=".288" transform="rotate(16.265 12.204 .67)" fill="#1A72B2"/><path d="M14.871 5.566c.505-1.155 1.893-2.249 2.554-2.68-.59-.63-.87-1.03-2.122-.967.174.966-.684 2.573-1.13 3.317l.698.33Z" fill="#fff"/><ellipse rx="1.196" ry=".439" transform="scale(-1 1) rotate(-25.262 -3.031 37.724)" fill="#fff"/><ellipse rx=".802" ry=".288" transform="scale(-1 1) rotate(-25.262 -3.234 37.77)" fill="#1A72B2"/><path d="M17.409 7.089c.735-.583 2.03-.816 2.614-.868-.168-.62-.212-.981-1.056-1.378-.223.696-1.349 1.452-1.902 1.785l.344.46Z" fill="#fff"/><ellipse rx=".89" ry=".327" transform="scale(-1 1) rotate(-53.266 -4.305 22.226)" fill="#fff"/><ellipse rx=".597" ry=".214" transform="scale(-1 1) rotate(-53.266 -4.373 22.26)" fill="#1A72B2"/><path d="M19.05 9.89c1.246-.158 2.682-1.179 3.28-1.69.436.741.74 1.121.33 2.301-.876-.437-2.655-.068-3.491.15l-.12-.76Z" fill="#fff"/><ellipse cx="22.586" cy="9.351" rx="1.192" ry=".438" transform="rotate(81.098 22.586 9.351)" fill="#fff"/><ellipse cx="22.675" cy="9.337" rx=".8" ry=".287" transform="rotate(81.098 22.675 9.337)" fill="#1A72B2"/><path d="M20.305 12.804c.785.368 2 .305 2.537.229-.02.593.017.928-.66 1.463-.348-.579-1.521-1.022-2.09-1.205l.213-.487Z" fill="#fff"/><ellipse cx="22.566" cy="13.799" rx=".823" ry=".302" transform="rotate(113.516 22.566 13.799)" fill="#fff"/><ellipse cx="22.623" cy="13.824" rx=".552" ry=".198" transform="rotate(113.516 22.623 13.824)" fill="#1A72B2"/><path d="M18.423 16.458c1.065.719 2.858.902 3.662.912-.164.864-.187 1.362-1.298 1.992-.378-.926-1.995-1.842-2.785-2.238l.42-.666Z" fill="#fff"/><ellipse cx="21.506" cy="18.428" rx="1.22" ry=".448" transform="rotate(122.338 21.506 18.428)" fill="#fff"/><ellipse cx="21.584" cy="18.478" rx=".818" ry=".293" transform="rotate(122.338 21.584 18.478)" fill="#1A72B2"/><path d="M17.09 18.73c.459 1.2.233 2.988.061 3.773.88.035 1.37.126 2.234-.815-.817-.578-1.344-2.36-1.553-3.218l-.743.26Z" fill="#fff"/><ellipse rx="1.22" ry=".448" transform="scale(1 -1) rotate(19.303 74.36 42.754)" fill="#fff"/><ellipse rx=".818" ry=".293" transform="scale(1 -1) rotate(19.303 74.632 42.8)" fill="#1A72B2"/><path d="M13.352 20.217c.362 1.392-.112 3.354-.401 4.206.974.15 1.508.31 2.587-.628-.838-.745-1.202-2.793-1.327-3.775l-.86.197Z" fill="#fff"/><ellipse rx="1.366" ry=".501" transform="scale(1 -1) rotate(12.918 114.053 50.987)" fill="#fff"/><ellipse rx=".916" ry=".328" transform="scale(1 -1) rotate(12.918 114.511 51.04)" fill="#1A72B2"/><path d="M9.943 20.98c-.02 1.032-.726 2.296-1.091 2.829.644.291.981.506 1.909.066-.435-.676-.29-2.162-.186-2.865l-.632-.03Z" fill="#fff"/><ellipse rx=".98" ry=".36" transform="scale(1 -1) rotate(-2.729 -497.145 -217.996)" fill="#fff"/><ellipse rx=".657" ry=".236" transform="scale(1 -1) rotate(-2.729 -498.709 -217.953)" fill="#1A72B2"/><path d="M4.377 8.356c-.952-.315-2.337-.073-2.943.09-.06-.684-.148-1.063.553-1.771.48.616 1.888.961 2.566 1.092l-.176.589Z" fill="#fff"/><ellipse cx="1.645" cy="7.528" rx=".952" ry=".349" transform="rotate(-73.393 1.645 7.528)" fill="#fff"/><ellipse cx="1.576" cy="7.508" rx=".638" ry=".229" transform="rotate(-73.393 1.576 7.508)" fill="#1A72B2"/><path d="M3.528 15.441c-.988.387-1.953 1.519-2.336 2.06-.51-.516-.838-.764-.745-1.815.807.178 2.186-.492 2.826-.843l.255.598Z" fill="#fff"/><ellipse cx=".745" cy="16.612" rx="1.007" ry=".37" transform="rotate(-113.058 .745 16.612)" fill="#fff"/><ellipse cx=".674" cy="16.642" rx=".675" ry=".242" transform="rotate(-113.058 .674 16.642)" fill="#1A72B2"/><path d="M5.108 18.298c-1.009.777-1.742 2.405-2.002 3.159-.762-.425-1.223-.601-1.468-1.844.99-.066 2.356-1.3 2.976-1.92l.494.605Z" fill="#fff"/><ellipse cx="2.291" cy="20.581" rx="1.209" ry=".444" transform="rotate(-129.272 2.291 20.581)" fill="#fff"/><ellipse cx="2.221" cy="20.639" rx=".811" ry=".291" transform="rotate(-129.272 2.22 20.64)" fill="#1A72B2"/><path d="M6.711 20.463c-.254 1.045-1.258 2.17-1.75 2.629.589.442.883.737 1.926.5-.289-.786.195-2.264.46-2.955l-.636-.174Z" fill="#fff"/><ellipse rx="1.021" ry=".375" transform="scale(1 -1) rotate(-15.29 -84.284 -33.75)" fill="#fff"/><ellipse rx=".685" ry=".245" transform="scale(1 -1) rotate(-15.29 -84.573 -33.711)" fill="#1A72B2"/><circle cx="8.632" cy="9.194" r="2.787" fill="#1A72B2"/><circle cx="15.628" cy="11.336" r="1.744" fill="#1A72B2"/><circle cx="8.747" cy="16.17" r="2.142" fill="#1A72B2"/><circle cx="13.675" cy="15.791" r=".853" fill="#1A72B2"/><circle cx="12.026" cy="5.725" r=".493" fill="#1A72B2"/><ellipse cx="14.377" cy="7.412" rx=".19" ry=".209" fill="#1A72B2"/><circle cx="7.477" cy="19.488" r=".19" fill="#1A72B2"/><circle cx="3.798" cy="11.602" r=".341" fill="#1A72B2"/><circle cx="6.282" cy="12.872" r=".209" fill="#1A72B2"/><circle cx="4.67" cy="8.227" r=".303" fill="#1A72B2"/><circle cx="11.874" cy="13.421" r=".531" fill="#1A72B2"/><circle cx="4.102" cy="14.597" r=".493" fill="#1A72B2"/><circle cx="12.102" cy="18.047" r=".417" fill="#1A72B2"/><circle cx="4.955" cy="17.194" r=".36" fill="#1A72B2"/><ellipse cx="10.32" cy="20.189" rx=".493" ry=".512" fill="#1A72B2"/><circle cx="12.822" cy="10.085" r=".303" fill="#1A72B2"/><ellipse cx="17.732" cy="7.393" rx=".512" ry=".493" fill="#1A72B2"/><circle cx="18.566" cy="11.924" r=".284" fill="#1A72B2"/><circle cx="19.495" cy="14.938" r=".417" fill="#1A72B2"/><circle r=".227" transform="matrix(1 0 0 -1 16.727 14.673)" fill="#1A72B2"/><circle cx="16.727" cy="17.516" r=".303" fill="#1A72B2"/><circle cx="14.547" cy="20" r=".436" fill="#1A72B2"/></svg>