<?xml version="1.0" encoding="UTF-8" standalone="no"?>
<svg
   xmlns:dc="http://purl.org/dc/elements/1.1/"
   xmlns:cc="http://creativecommons.org/ns#"
   xmlns:rdf="http://www.w3.org/1999/02/22-rdf-syntax-ns#"
   xmlns:svg="http://www.w3.org/2000/svg"
   xmlns="http://www.w3.org/2000/svg"
   width="20.548414"
   height="20.548347"
   viewBox="0 0 20.548414 20.548347"
   fill="#edf7ff"
   version="1.1"
   id="svg4">
  <metadata
     id="metadata10">
    <rdf:RDF>
      <cc:Work
         rdf:about="">
        <dc:format>image/svg+xml</dc:format>
        <dc:type
           rdf:resource="http://purl.org/dc/dcmitype/StillImage" />
        <dc:title></dc:title>
      </cc:Work>
    </rdf:RDF>
  </metadata>
  <defs
     id="defs8" />
  <path
     style="color:#000000;font-style:normal;font-variant:normal;font-weight:normal;font-stretch:normal;font-size:medium;line-height:normal;font-family:sans-serif;font-variant-ligatures:normal;font-variant-position:normal;font-variant-caps:normal;font-variant-numeric:normal;font-variant-alternates:normal;font-variant-east-asian:normal;font-feature-settings:normal;font-variation-settings:normal;text-indent:0;text-align:start;text-decoration:none;text-decoration-line:none;text-decoration-style:solid;text-decoration-color:#000000;letter-spacing:normal;word-spacing:normal;text-transform:none;writing-mode:lr-tb;direction:ltr;text-orientation:mixed;dominant-baseline:auto;baseline-shift:baseline;text-anchor:start;white-space:normal;shape-padding:0;shape-margin:0;inline-size:0;clip-rule:nonzero;display:inline;overflow:visible;visibility:visible;opacity:1;isolation:auto;mix-blend-mode:normal;color-interpolation:sRGB;color-interpolation-filters:linearRGB;solid-color:#000000;solid-opacity:1;vector-effect:none;fill:#edf7ff;fill-opacity:1;fill-rule:nonzero;stroke:none;stroke-width:1;stroke-linecap:butt;stroke-linejoin:miter;stroke-miterlimit:4;stroke-dasharray:none;stroke-dashoffset:0;stroke-opacity:1;color-rendering:auto;image-rendering:auto;shape-rendering:auto;text-rendering:auto;enable-background:accumulate;stop-color:#000000;stop-opacity:1"
     d="m 7.801974,0 c -0.55229,0 -1,0.447715 -1,0.999998 v 4.80197 c 0,0.55228 -0.44772,1 -1,1 H 1.000004 C 0.447716,6.801968 0,7.249678 0,7.801968 v 4.94448 c 0,0.5522 0.447715,1 1.000004,1 h 4.80197 c 0.55228,0 1,0.4477 1,1 v 4.8019 c 0,0.5523 0.44771,1 1,1 h 4.94444 c 0.5523,0 1,-0.4477 1,-1 v -4.8019 c 0,-0.5523 0.4477,-1 1,-1 h 4.802 c 0.5523,0 1,-0.4477 1,-1 v -4.94448 c 0,-0.55228 -0.4477,-1 -1,-1 h -4.802 c -0.5523,0 -1,-0.44772 -1,-1 v -4.80197 c 0,-0.552283 -0.4477,-0.999998 -1,-0.999998 z"
     id="path2" />
</svg>
