<svg width="140" height="140" viewBox="0 0 140 140" fill="none" xmlns="http://www.w3.org/2000/svg">
<circle opacity="0.05" cx="70.3467" cy="72.4114" r="41.3809" fill="#CB3851"/>
<path d="M64.1309 93.5209V104.387C64.1309 109.461 68.2441 113.566 73.3091 113.566H114.342C119.416 113.566 123.521 109.452 123.521 104.387V59.7292" stroke="#CB3851" stroke-width="2.48285" stroke-miterlimit="10" stroke-linecap="round"/>
<path d="M123.521 59.7294C121.618 59.7294 119.971 58.3886 119.59 56.5265L118.68 52.1318H128.363L127.453 56.5265C127.072 58.3886 125.425 59.7294 123.521 59.7294Z" stroke="#CB3851" stroke-width="2.48285" stroke-miterlimit="10" stroke-linecap="round"/>
<path d="M82.2387 93.3555H46.0222C44.2428 93.3555 42.8027 91.9154 42.8027 90.136V83.3578C42.8027 81.5785 44.2428 80.1384 46.0222 80.1384H82.2387C84.0181 80.1384 85.4581 81.5785 85.4581 83.3578V90.136C85.4581 91.9154 84.0098 93.3555 82.2387 93.3555Z" stroke="#CB3851" stroke-width="2.48285" stroke-miterlimit="10" stroke-linecap="round"/>
<path d="M58.6855 86.7512H69.5687" stroke="#CB3851" stroke-width="2.48285" stroke-miterlimit="10" stroke-linecap="round"/>
<path d="M88.6284 69.4374H39.6251C36.9353 69.4374 34.7588 67.2607 34.7588 64.571V36.9782C34.7588 34.2885 36.9353 32.1118 39.6251 32.1118H88.6284C91.3181 32.1118 93.4948 34.2885 93.4948 36.9782V64.571C93.4948 67.2607 91.3181 69.4374 88.6284 69.4374Z" stroke="#CB3851" stroke-width="2.48285" stroke-miterlimit="10" stroke-linecap="round" stroke-linejoin="round"/>
<path d="M82.0486 54.4411C71.9682 63.9008 56.2767 63.9008 46.1963 54.4411L54.878 43.3262C60.0754 48.2091 68.1778 48.2091 73.3752 43.3262L82.0486 54.4411Z" fill="#0092D3"/>
<path d="M41.2881 38.2859H46.5353" stroke="#CB3851" stroke-width="2.48285" stroke-miterlimit="10" stroke-linecap="round" stroke-linejoin="round"/>
<path d="M41.2881 43.3262H43.9117" stroke="#CB3851" stroke-width="2.48285" stroke-miterlimit="10" stroke-linecap="round" stroke-linejoin="round"/>
<path d="M56.4834 69.4458C57.8986 72.8721 57.8986 76.7206 56.4834 80.1469" stroke="#CB3851" stroke-width="2.48285" stroke-miterlimit="10" stroke-linecap="round"/>
<path d="M71.7782 69.4458C70.363 72.8721 70.363 76.7206 71.7782 80.1469" stroke="#CB3851" stroke-width="2.48285" stroke-miterlimit="10" stroke-linecap="round"/>
</svg>
