<svg width="140" height="140" viewBox="0 0 140 140" fill="none" xmlns="http://www.w3.org/2000/svg">
<circle opacity="0.05" cx="70.3477" cy="64.1353" r="41.3809" fill="#CB3851"/>
<path d="M76.5361 79.7834L74.5775 81.7034C72.464 83.7704 69.0809 83.7704 66.9674 81.7034L65.0088 79.7834" stroke="#CB3851" stroke-width="3.31047" stroke-miterlimit="10" stroke-linecap="round" stroke-linejoin="round"/>
<path d="M73.7491 82.3691L80.1669 105.95L70.7686 115.418L61.3779 105.95L67.7958 82.3691" stroke="#CB3851" stroke-width="3.31047" stroke-miterlimit="10" stroke-linecap="round"/>
<path d="M73.7491 82.3691L80.1669 105.95L70.7686 115.418L61.3779 105.95L67.7958 82.3691" stroke="#CB3851" stroke-width="3.31047" stroke-miterlimit="10" stroke-linecap="round"/>
<path d="M86.5459 105.725L109.244 101.026L106.241 85.9996C105.575 82.6862 103.779 79.6747 101.17 77.5148C99.4977 76.1445 97.81 75.262 96.1997 74.9058L83.3718 71.1821C83.0931 71.1047 82.8299 70.9808 82.5899 70.8182C81.9163 70.3615 81.4673 69.6338 81.3744 68.8286L80.7783 63.7501C84.3705 60.9631 87.0258 56.7903 88.3032 51.9208C90.5947 51.7196 92.3521 49.1726 92.3521 45.952C92.3521 42.9792 90.858 40.5793 88.8142 40.0684" stroke="#CB3851" stroke-width="3.31047" stroke-miterlimit="10" stroke-linecap="round"/>
<path d="M52.6137 40.0994C50.6319 40.6645 49.1919 43.0335 49.1919 45.9521C49.1919 49.1648 50.9415 51.7041 53.2253 51.9209C54.5104 56.7826 57.1658 60.9554 60.7502 63.7501L60.1618 68.8287C60.0689 69.6415 59.6277 70.3692 58.9464 70.826C58.7064 70.9886 58.4432 71.1124 58.1645 71.1899L45.3753 74.8981C43.7185 75.262 42.0231 76.1445 40.3587 77.5226C37.7342 79.6902 35.9382 82.7017 35.2801 86.0074L32.2764 101.034L52.5905 105.245" stroke="#CB3851" stroke-width="3.31047" stroke-miterlimit="10" stroke-linecap="round"/>
<path d="M53.9757 30.9644C52.4196 35.741 52.6131 40.0995 52.6131 40.0995" stroke="#CB3851" stroke-width="3.31047" stroke-miterlimit="10" stroke-linecap="round"/>
<path d="M88.8141 40.0686C88.8141 40.0686 89.0308 35.6946 87.4902 30.918" stroke="#CB3851" stroke-width="3.31047" stroke-miterlimit="10" stroke-linecap="round"/>
<path d="M87.4892 30.9105C84.0132 32.6833 80.4753 33.1091 76.6045 32.6834C72.5478 32.2343 69.3815 30.2912 65.7661 28.6422C63.2578 27.4964 60.3547 26.7455 57.769 27.69C56.1742 28.2706 54.7188 29.4396 53.9756 30.9647" stroke="#CB3851" stroke-width="3.31047" stroke-miterlimit="10" stroke-linecap="round"/>
<path d="M81.2343 67.6289L70.7676 77.004L60.3086 67.6289" stroke="#CB3851" stroke-width="3.31047" stroke-miterlimit="10" stroke-linecap="round" stroke-linejoin="round"/>
<path d="M87.4902 92.8204L99.3272 90.5908" stroke="#CB3851" stroke-width="3.31047" stroke-miterlimit="10" stroke-linecap="round" stroke-linejoin="round"/>
<path d="M53.6514 32.0561V17.1921C53.6514 14.0954 56.1597 11.5872 59.2563 11.5872H81.8929C84.9896 11.5872 87.4979 14.0954 87.4979 17.1921V30.9103" stroke="#CB3851" stroke-width="3.31047" stroke-miterlimit="10" stroke-linecap="round"/>
<path d="M70.5684 24.4926V16.6426" stroke="#0092D3" stroke-width="3.31047" stroke-miterlimit="10" stroke-linecap="round"/>
<path d="M66.6514 20.5676H74.4937" stroke="#0092D3" stroke-width="3.31047" stroke-miterlimit="10" stroke-linecap="round"/>
<path d="M66.2305 104.464L70.7671 109.418L75.3037 104.464L73.136 96.2886C71.1851 97.473 69.2342 98.2627 67.7401 98.7736L66.2305 104.464Z" fill="#F2DDDE"/>
</svg>
