<svg width="140" height="140" viewBox="0 0 140 140" fill="none" xmlns="http://www.w3.org/2000/svg">
<circle opacity="0.05" cx="70.3477" cy="72.4116" r="41.3809" fill="#CB3851"/>
<path d="M49.8307 80.1801C39.7917 73.6088 33.1543 62.2621 33.1543 49.3596C33.1543 29.0333 49.6321 12.5554 69.9584 12.5554C90.2847 12.5554 106.763 29.0333 106.763 49.3596C106.763 62.2539 100.133 73.6005 90.0943 80.1718" stroke="#CB3851" stroke-width="3.31047" stroke-miterlimit="10"/>
<path d="M97.6915 103.08V106.3C97.6915 108.634 95.7963 110.529 93.4624 110.529H82.9103L77.9446 115.495H69.9829H69.9332H61.9715L57.0058 110.529H46.4537C44.1198 110.529 42.2246 108.634 42.2246 106.3V103.08L55.7313 63.156H84.1931L97.6915 103.08Z" stroke="#CB3851" stroke-width="3.31047" stroke-miterlimit="10"/>
<path d="M55.7231 63.1476C52.2637 59.5806 50.1367 54.7142 50.1367 49.3595C50.1367 38.4184 59.0088 29.5381 69.9582 29.5381C80.9076 29.5381 89.7796 38.4102 89.7796 49.3595C89.7796 54.7225 87.6526 59.5806 84.1932 63.1476" stroke="#CB3851" stroke-width="3.31047" stroke-miterlimit="10"/>
<path d="M42.2246 103.08C60.6888 101.624 79.2357 101.624 97.6998 103.08" stroke="#CB3851" stroke-width="3.31047" stroke-miterlimit="10" stroke-linecap="round"/>
<path d="M62.1699 13.3831C62.5837 17.3225 65.9108 20.393 69.9578 20.393C74.0049 20.393 77.3318 17.3225 77.7456 13.3831" stroke="#CB3851" stroke-width="3.31047" stroke-miterlimit="10" stroke-linecap="round"/>
<path d="M80.6268 68.1133H59.2908L56.5928 76.0998C62.924 76.5798 76.8445 78.7813 87.5787 88.6382L80.6268 68.1133Z" fill="#0092D3"/>
</svg>
