<svg width="935" height="354" viewBox="0 0 935 354" fill="none" xmlns="http://www.w3.org/2000/svg">
<g opacity="0.5">
<g opacity="0.7">
<path d="M482.279 196.141L517.49 196.088V195.691L554.008 195.638C557.98 195.638 561.838 196.741 563.612 198.382L583.203 216.433L609.07 135.45C609.91 133.103 614.867 131.224 620.022 131.295C625.187 131.365 629.875 133.386 630.393 135.759L639.292 212.754L674.057 266.422C674.171 266.599 674.265 266.775 674.348 266.952L689.231 304.871L739.76 4.98991C740.186 2.34312 745.931 0.137459 751.667 0.437428C756.635 0.675639 760.897 2.70485 761.271 4.98991L789.896 176.458C792.551 175.152 796.824 174.596 800.568 175.064C804.312 175.531 807.382 177.014 808.243 178.76L832.346 228.361L846.4 137.065C846.638 134.727 850.932 132.627 855.983 132.371C861.023 132.115 866.209 133.747 867.537 135.997L897.002 194.156L910.869 194.227V194.138L949.616 194.324C950.27 194.324 950.923 194.359 951.556 194.421H951.94V194.465C956.617 195.003 960.434 197.076 960.392 199.326C960.351 201.541 956.555 203.57 951.94 204.099V204.328L888.736 204.028C884.1 204.011 879.702 202.458 878.458 200.402L861.552 172.699L846.742 269.669C846.42 272.025 841.981 274.107 836.879 274.301C831.776 274.495 826.663 272.766 825.512 270.463L798.162 203.358C796.689 207.513 794.439 214.227 783.901 214.06C778.819 213.91 774.318 211.889 773.862 209.551L749.468 75.3327L704.134 348.72C703.74 351.102 699.125 353.175 693.939 353.299C688.764 353.413 683.713 351.561 682.821 349.205L653.335 268.937L653.242 268.716L618.373 215.127C618.176 214.792 618.041 214.457 617.989 214.113L616.672 171.958L597.506 239.345C596.883 241.428 593.098 243.21 588.607 243.554C584.116 243.898 579.283 242.769 577.229 240.889L547.38 205.52L517.49 205.564V205.969L482.362 206.022C476.689 206.075 471.441 203.711 471.42 201.091C471.399 198.506 476.585 196.123 482.279 196.141Z" fill="white"/>
<path d="M554.008 196.138L517.99 196.19V196.587L517.491 196.588L482.279 196.641H482.277C479.494 196.632 476.846 197.212 474.914 198.095C473.947 198.536 473.181 199.045 472.665 199.573C472.148 200.103 471.916 200.617 471.92 201.087C471.924 201.567 472.167 202.089 472.696 202.622C473.223 203.155 474 203.663 474.977 204.103C476.927 204.982 479.585 205.548 482.357 205.522H482.361L516.99 205.47V205.064L517.489 205.064L547.38 205.02L547.612 205.019L547.762 205.197L577.59 240.542C578.529 241.388 580.144 242.107 582.118 242.569C584.095 243.031 586.375 243.223 588.569 243.055C590.764 242.887 592.772 242.368 594.293 241.649C595.842 240.918 596.776 240.035 597.026 239.205C597.026 239.204 597.026 239.203 597.027 239.202L616.191 171.821L617.172 171.943L618.488 214.066C618.53 214.319 618.633 214.582 618.798 214.865L653.661 268.443L653.685 268.48L653.702 268.521L653.796 268.742L653.8 268.753L653.804 268.764L683.289 349.028C683.289 349.029 683.289 349.029 683.289 349.03C683.467 349.496 683.869 349.982 684.504 350.453C685.136 350.92 685.967 351.349 686.947 351.709C688.905 352.429 691.399 352.855 693.928 352.799C696.463 352.738 698.846 352.201 700.629 351.4C701.52 351 702.245 350.541 702.763 350.057C703.283 349.572 703.567 349.089 703.641 348.638L704.134 348.72L703.641 348.638L748.975 75.251L749.96 75.2433L774.352 209.456C774.353 209.457 774.353 209.458 774.353 209.459C774.441 209.904 774.731 210.378 775.247 210.853C775.762 211.327 776.477 211.777 777.352 212.17C779.101 212.955 781.429 213.486 783.913 213.56C789.058 213.641 792.113 212.048 794.068 209.986C796.009 207.938 796.914 205.385 797.647 203.314L797.691 203.191L798.129 201.953L798.625 203.169L825.967 270.256C826.205 270.721 826.662 271.196 827.334 271.646C828.009 272.098 828.874 272.507 829.873 272.844C831.873 273.52 834.366 273.896 836.86 273.801C839.354 273.706 841.672 273.149 843.391 272.343C844.25 271.939 844.943 271.481 845.433 271.002C845.924 270.521 846.186 270.045 846.246 269.601L846.248 269.593L861.058 172.624L861.265 171.269L861.979 172.439L878.885 200.142L878.886 200.143C879.416 201.02 880.69 201.873 882.491 202.508C884.269 203.135 886.471 203.52 888.738 203.528H888.738L951.44 203.826V203.653L951.883 203.602C954.14 203.343 956.177 202.719 957.638 201.907C959.139 201.074 959.877 200.138 959.892 199.317C959.908 198.486 959.191 197.538 957.689 196.689C956.227 195.862 954.171 195.225 951.882 194.961L951.507 194.918C951.507 194.918 951.506 194.918 951.506 194.918C950.888 194.858 950.252 194.824 949.616 194.824H949.614L911.369 194.641V194.729L910.866 194.727L896.999 194.656L896.694 194.654L896.556 194.382L867.098 136.238C866.821 135.775 866.323 135.308 865.617 134.871C864.909 134.432 864.019 134.041 863.002 133.722C860.968 133.082 858.471 132.745 856.008 132.87C853.539 132.995 851.271 133.571 849.606 134.386C848.774 134.794 848.11 135.253 847.646 135.73C847.181 136.207 846.942 136.677 846.897 137.115L846.896 137.128L846.894 137.141L832.841 228.437L832.597 230.021L831.897 228.58L807.795 178.981C807.794 178.981 807.794 178.981 807.794 178.981C807.436 178.254 806.571 177.51 805.27 176.883C803.983 176.263 802.334 175.788 800.506 175.56C796.832 175.101 792.663 175.654 790.117 176.906L789.513 177.203L789.403 176.54L760.778 5.07224L760.777 5.07054C760.707 4.63834 760.444 4.17472 759.963 3.70648C759.483 3.2398 758.81 2.79299 757.977 2.3978C756.312 1.60757 754.071 1.05329 751.643 0.936859L751.641 0.936746C748.839 0.790213 746.039 1.25713 743.901 2.07558C742.832 2.48497 741.947 2.97496 741.314 3.50365C740.676 4.03631 740.334 4.57198 740.254 5.06922L740.253 5.07299L689.724 304.954L689.424 306.733L688.765 305.054L673.888 267.15C673.814 266.993 673.733 266.842 673.638 266.694C673.637 266.694 673.637 266.694 673.637 266.694L638.872 213.026L638.809 212.928L638.795 212.811L629.9 135.843C629.795 135.395 629.486 134.919 628.949 134.445C628.407 133.965 627.66 133.513 626.752 133.123C624.937 132.341 622.54 131.829 620.015 131.795C617.496 131.76 615.031 132.203 613.105 132.933C612.143 133.299 611.329 133.73 610.713 134.199C610.097 134.668 609.711 135.15 609.543 135.611C609.542 135.614 609.541 135.616 609.54 135.619L583.68 216.585L583.441 217.332L582.865 216.801L563.273 198.75L563.272 198.749C562.466 198.003 561.142 197.346 559.497 196.875C557.861 196.408 555.951 196.138 554.008 196.138C554.008 196.138 554.008 196.138 554.008 196.138Z" stroke="url(#paint0_linear_406_1702)" stroke-opacity="0.4"/>
</g>
<path d="M478.114 196.141L442.903 196.088V195.691L406.385 195.638C402.413 195.638 398.554 196.741 396.781 198.382L377.189 216.433L351.323 135.45C350.483 133.103 345.525 131.224 340.371 131.295C335.206 131.365 330.518 133.386 329.999 135.759L321.1 212.754L286.335 266.422C286.221 266.599 286.128 266.775 286.045 266.951L271.162 304.871L220.632 4.98991C220.207 2.34312 214.461 0.137459 208.726 0.437428C203.758 0.675639 199.495 2.70485 199.122 4.98991L170.497 176.458C167.842 175.152 163.568 174.596 159.824 175.064C156.08 175.531 153.01 177.014 152.15 178.76L128.046 228.361L113.993 137.065C113.754 134.727 109.461 132.627 104.41 132.371C99.3692 132.115 94.1835 133.747 92.8559 135.997L63.3907 194.156L49.524 194.227V194.138L10.7763 194.324C10.1229 194.324 9.46947 194.359 8.83682 194.421H8.45308V194.465C3.77555 195.003 -0.0411508 197.076 0.000335029 199.326C0.0418208 201.54 3.83778 203.57 8.45308 204.099V204.328L71.6567 204.028C76.2927 204.011 80.6902 202.458 81.9348 200.402L98.8403 172.699L113.651 269.669C113.972 272.024 118.411 274.107 123.514 274.301C128.617 274.495 133.73 272.766 134.881 270.463L162.231 203.358C163.703 207.513 165.954 214.227 176.491 214.06C181.573 213.91 186.075 211.889 186.531 209.551L210.925 75.3327L256.258 348.72C256.652 351.102 261.268 353.175 266.453 353.299C271.629 353.413 276.68 351.561 277.572 349.205L307.058 268.937L307.151 268.716L342.02 215.127C342.217 214.792 342.352 214.457 342.403 214.113L343.721 171.958L362.887 239.345C363.509 241.428 367.295 243.21 371.786 243.554C376.277 243.898 381.11 242.769 383.163 240.889L413.012 205.519L442.903 205.564V205.969L478.031 206.022C483.704 206.075 488.952 203.711 488.973 201.091C488.994 198.506 483.808 196.123 478.114 196.141Z" fill="url(#paint1_linear_406_1702)"/>
</g>
<defs>
<linearGradient id="paint0_linear_406_1702" x1="716" y1="-77.5" x2="715.906" y2="353.304" gradientUnits="userSpaceOnUse">
<stop stop-color="#1A72B2"/>
<stop offset="1" stop-color="#E3F1FD"/>
</linearGradient>
<linearGradient id="paint1_linear_406_1702" x1="5.74511" y1="353.304" x2="460.886" y2="353.304" gradientUnits="userSpaceOnUse">
<stop stop-color="#EDF7FF"/>
<stop offset="1" stop-color="#EDF7FF" stop-opacity="0"/>
</linearGradient>
</defs>
</svg>
