<svg width="429" height="354" viewBox="0 0 429 354" fill="none" xmlns="http://www.w3.org/2000/svg">
<path d="M418.114 196.696L382.903 196.643V196.246L346.385 196.193C342.413 196.193 338.554 197.296 336.781 198.937L317.189 216.988L291.323 136.005C290.483 133.659 285.525 131.779 280.371 131.85C275.206 131.921 270.518 133.941 269.999 136.314L261.1 213.309L226.335 266.977C226.221 267.154 226.128 267.33 226.045 267.507L211.162 305.426L160.632 5.54521C160.207 2.89842 154.461 0.692756 148.726 0.992726C143.758 1.23094 139.495 3.26015 139.122 5.54521L110.497 177.013C107.842 175.707 103.568 175.151 99.8244 175.619C96.0803 176.087 93.0103 177.569 92.1495 179.316L68.0462 228.917L53.9929 137.62C53.7544 135.282 49.4606 133.182 44.4097 132.926C39.3692 132.67 34.1835 134.303 32.8559 136.552L3.39065 194.711L-10.476 194.782V194.694L-49.2237 194.879C-49.8771 194.879 -50.5305 194.914 -51.1632 194.976H-51.5469V195.02C-56.2244 195.558 -60.0412 197.632 -59.9997 199.881C-59.9582 202.096 -56.1622 204.125 -51.5469 204.654V204.884L11.6567 204.584C16.2927 204.566 20.6902 203.013 21.9348 200.958L38.8403 173.255L53.6507 270.224C53.9722 272.58 58.4112 274.662 63.5139 274.856C68.6167 275.05 73.7298 273.321 74.8811 271.018L102.231 203.913C103.703 208.069 105.954 214.783 116.491 214.615C121.573 214.465 126.075 212.445 126.531 210.107L150.925 75.888L196.258 349.275C196.652 351.657 201.268 353.73 206.453 353.854C211.629 353.969 216.68 352.116 217.571 349.76L247.057 269.492L247.151 269.271L282.02 215.683C282.217 215.347 282.352 215.012 282.403 214.668L283.721 172.513L302.887 239.901C303.509 241.983 307.295 243.765 311.786 244.109C316.277 244.453 321.11 243.324 323.163 241.445L353.012 206.075L382.903 206.119V206.525L418.031 206.578C423.704 206.631 428.952 204.266 428.973 201.646C428.993 199.061 423.808 196.679 418.114 196.696Z" fill="url(#paint0_linear_406_1682)"/>
<defs>
<linearGradient id="paint0_linear_406_1682" x1="-54.2549" y1="353.859" x2="400.886" y2="353.859" gradientUnits="userSpaceOnUse">
<stop offset="0.354167" stop-color="#E3F1FD"/>
<stop offset="1" stop-color="#EDF7FF" stop-opacity="0"/>
<stop offset="1" stop-color="#E3F1FD" stop-opacity="0"/>
</linearGradient>
</defs>
</svg>
