<svg width="466" height="354" viewBox="0 0 466 354" fill="none" xmlns="http://www.w3.org/2000/svg">
<path d="M455.114 196.696L419.903 196.643V196.246L383.385 196.194C379.413 196.194 375.554 197.296 373.781 198.937L354.189 216.988L328.323 136.006C327.483 133.659 322.525 131.779 317.371 131.85C312.206 131.921 307.518 133.941 306.999 136.314L298.1 213.309L263.335 266.977C263.221 267.154 263.128 267.33 263.045 267.507L248.162 305.427L197.632 5.54527C197.207 2.89848 191.461 0.692817 185.726 0.992787C180.758 1.231 176.495 3.26021 176.122 5.54527L147.497 177.013C144.842 175.707 140.568 175.152 136.824 175.619C133.08 176.087 130.01 177.569 129.15 179.316L105.046 228.917L90.9929 137.62C90.7544 135.282 86.4606 133.182 81.4097 132.926C76.3692 132.671 71.1835 134.303 69.8559 136.553L40.3907 194.711L26.524 194.782V194.694L-12.2237 194.879C-12.8771 194.879 -13.5305 194.914 -14.1632 194.976H-14.5469V195.02C-19.2244 195.558 -23.0412 197.632 -22.9997 199.881C-22.9582 202.096 -19.1622 204.125 -14.5469 204.654V204.884L48.6567 204.584C53.2927 204.566 57.6902 203.013 58.9348 200.958L75.8403 173.255L90.6507 270.224C90.9722 272.58 95.4112 274.662 100.514 274.856C105.617 275.05 110.73 273.321 111.881 271.018L139.231 203.913C140.703 208.069 142.954 214.783 153.491 214.615C158.573 214.465 163.075 212.445 163.531 210.107L187.925 75.8881L233.258 349.275C233.652 351.657 238.268 353.73 243.453 353.854C248.629 353.969 253.68 352.116 254.571 349.76L284.057 269.492L284.151 269.271L319.02 215.683C319.217 215.347 319.352 215.012 319.403 214.668L320.721 172.514L339.887 239.901C340.509 241.983 344.295 243.765 348.786 244.109C353.277 244.453 358.11 243.324 360.163 241.445L390.012 206.075L419.903 206.119V206.525L455.031 206.578C460.704 206.631 465.952 204.266 465.973 201.646C465.993 199.061 460.808 196.679 455.114 196.696Z" fill="url(#paint0_linear_406_1694)"/>
<defs>
<linearGradient id="paint0_linear_406_1694" x1="-17.2549" y1="353.859" x2="437.886" y2="353.859" gradientUnits="userSpaceOnUse">
<stop offset="0.354167" stop-color="#E3F1FD"/>
<stop offset="1" stop-color="#EDF7FF" stop-opacity="0"/>
<stop offset="1" stop-color="#E3F1FD" stop-opacity="0"/>
</linearGradient>
</defs>
</svg>
